# Made in Blockbench 5.0.6
mtllib magic2.mtl

o magic2a
v 47.5 2.5625 47.5
v 47.5 2.5625 -47.5
v -47.5 2.5625 47.5
v -47.5 2.5625 -47.5
vt 1 0
vt 1 1
vt 0 1
vt 0 0
vn 0 1 0
usemtl m_8e540cbd-5747-ccec-b27d-052d02879ebd
f 1/1/1 2/2/1 4/3/1 3/4/1
o magic2b
v 47.5 -2.5624999999999942 -47.5
v 47.5 -2.5625000000000058 47.5
v -47.5 -2.5624999999999942 -47.5
v -47.5 -2.5625000000000058 47.5
vt 1 0
vt 1 1
vt 0 1
vt 0 0
vn 0 -1 -1.2246467991473532e-16
usemtl m_8e540cbd-5747-ccec-b27d-052d02879ebd
f 5/5/2 6/6/2 8/7/2 7/8/2