# Made in Blockbench 5.0.6
mtllib magic3.mtl

o magic3a
v 63.5 0 63.5
v 63.5 0 -63.5
v -63.5 0 63.5
v -63.5 0 -63.5
vt 1 0
vt 1 1
vt 0 1
vt 0 0
vn 0 1 0
usemtl m_fb11bae8-a0db-adfd-8004-2b2709819f3c
f 1/1/1 2/2/1 4/3/1 3/4/1
o magic3b
v 63.5 -0.06249999999999222 -63.5
v 63.5 -0.06250000000000777 63.5
v -63.5 -0.06249999999999222 -63.5
v -63.5 -0.06250000000000777 63.5
vt 1 0
vt 1 1
vt 0 1
vt 0 0
vn 0 -1 -1.2246467991473532e-16
usemtl m_fb11bae8-a0db-adfd-8004-2b2709819f3c
f 5/5/2 6/6/2 8/7/2 7/8/2